# xmcd CD database file
#
# Track frame offsets:
#	150
#	13807
#	27196
#	40687
#	54080
#	66525
#	88979
#	103039
#	117728
#	131598
#	143265
#	154821
#
# Disc length: 2217 seconds
#
# Revision: 0
# Processed by: cddbd v1.5.1PL0 Copyright (c) Steve Scherf et al.
# Submitted via: CDex 1.51
#
DISCID=a108a70c
DTITLE=Frank Sinatra - The Voice - Vol. 1
DYEAR=1971
DGENRE=Jazz
TTITLE0=The Second Time Around
TTITLE1=Tina
TTITLE2=Moment to Moment
TTITLE3=I Left My Heart in San Francisco
TTITLE4=The Look of Love
TTITLE5=Little Green Apples
TTITLE6=Me and My Shadow
TTITLE7=Name It and It's Yours
TTITLE8=Nothing But the Best
TTITLE9=Ev'ry Body's Twistin'
TTITLE10=Forget Domani
TTITLE11=Star
EXTD=YEAR: 1971
EXTT0=
EXTT1=
EXTT2=
EXTT3=
EXTT4=
EXTT5=
EXTT6=
EXTT7=
EXTT8=
EXTT9=
EXTT10=
EXTT11=
PLAYORDER=
